<!DOCTYPE svg PUBLIC "-//W3C//DTD SVG 1.1//EN" "http://www.w3.org/Graphics/SVG/1.1/DTD/svg11.dtd">
<!-- Uploaded to: SVG Repo, www.svgrepo.com, Transformed by: SVG Repo Mixer Tools -->
<svg width="800px" height="800px" viewBox="0 0 15 15" fill="none" xmlns="http://www.w3.org/2000/svg">
<g id="SVGRepo_bgCarrier" stroke-width="0"/>
<g id="SVGRepo_tracerCarrier" stroke-linecap="round" stroke-linejoin="round"/>
<g id="SVGRepo_iconCarrier"> <circle cx="4.5" cy="2.5" r=".6" fill="#aeadad"/> <circle cx="4.5" cy="4.5" r=".6" fill="#aeadad"/> <circle cx="4.5" cy="6.499" r=".6" fill="#aeadad"/> <circle cx="4.5" cy="8.499" r=".6" fill="#aeadad"/> <circle cx="4.5" cy="10.498" r=".6" fill="#aeadad"/> <circle cx="4.5" cy="12.498" r=".6" fill="#aeadad"/> <circle cx="6.5" cy="2.5" r=".6" fill="#aeadad"/> <circle cx="6.5" cy="4.5" r=".6" fill="#aeadad"/> <circle cx="6.5" cy="6.499" r=".6" fill="#aeadad"/> <circle cx="6.5" cy="8.499" r=".6" fill="#aeadad"/> <circle cx="6.5" cy="10.498" r=".6" fill="#aeadad"/> <circle cx="6.5" cy="12.498" r=".6" fill="#aeadad"/> <circle cx="8.499" cy="2.5" r=".6" fill="#aeadad"/> <circle cx="8.499" cy="4.5" r=".6" fill="#aeadad"/> <circle cx="8.499" cy="6.499" r=".6" fill="#aeadad"/> <circle cx="8.499" cy="8.499" r=".6" fill="#aeadad"/> <circle cx="8.499" cy="10.498" r=".6" fill="#aeadad"/> <circle cx="8.499" cy="12.498" r=".6" fill="#aeadad"/> <circle cx="10.499" cy="2.5" r=".6" fill="#aeadad"/> <circle cx="10.499" cy="4.5" r=".6" fill="#aeadad"/> <circle cx="10.499" cy="6.499" r=".6" fill="#aeadad"/> <circle cx="10.499" cy="8.499" r=".6" fill="#aeadad"/> <circle cx="10.499" cy="10.498" r=".6" fill="#aeadad"/> <circle cx="10.499" cy="12.498" r=".6" fill="#aeadad"/> </g>
</svg>